<svg width="289" height="150" xmlns="http://www.w3.org/2000/svg" style="vector-effect: non-scaling-stroke;">
 <g id="Layer_1">
  <title>Layer 1</title>
  <rect id="svg_6" height="71.10207" width="294.57055" y="2.72942" x="-6.55355" stroke-width="6" stroke="#333333" fill="url(#svg_8)"/>
  <rect id="svg_9" height="68.94826" width="294.5694" y="78.08339" x="-7.01729" stroke-width="6" stroke="#333333" fill="url(#svg_8)"/>
  <ellipse ry="11.36922" rx="11.36922" id="svg_10" cy="111.67531" cx="134.71957" stroke-width="6" stroke="#333333" fill="#3f3f3f"/>
  <path id="svg_12" d="m189.48744,51.8952c-6.28134,0 -11.36922,-5.08788 -11.36922,-11.36922c0,-6.28134 5.08788,-11.36922 11.36922,-11.36922c6.28134,0 11.36922,5.08788 11.36922,11.36922c0,6.28134 -5.08788,11.36922 -11.36922,11.36922z" opacity="undefined" stroke-width="6" stroke="#333333" fill="#3f3f3f"/>
  <path id="svg_13" d="m76.28421,122.80003c-6.28134,0 -11.36922,-5.08788 -11.36922,-11.36922c0,-6.28134 5.08788,-11.36922 11.36922,-11.36922c6.28134,0 11.36922,5.08788 11.36922,11.36922c0,6.28134 -5.08788,11.36922 -11.36922,11.36922z" opacity="undefined" stroke-width="6" stroke="#333333" fill="#3f3f3f"/>
  <path id="svg_14" d="m245.96681,51.4062c-6.28134,0 -11.36922,-5.08788 -11.36922,-11.36922c0,-6.28134 5.08788,-11.36922 11.36922,-11.36922c6.28134,0 11.36922,5.08788 11.36922,11.36922c0,6.28134 -5.08788,11.36922 -11.36922,11.36922z" opacity="undefined" stroke-width="6" stroke="#333333" fill="#3f3f3f"/>
  <path id="svg_15" d="m133.74157,51.4062c-6.28134,0 -11.36922,-5.08788 -11.36922,-11.36922c0,-6.28134 5.08788,-11.36922 11.36922,-11.36922c6.28134,0 11.36922,5.08788 11.36922,11.36922c0,6.28134 -5.08788,11.36922 -11.36922,11.36922z" opacity="undefined" stroke-width="6" stroke="#333333" fill="#3f3f3f"/>
  <path id="svg_16" d="m76.03971,51.4062c-6.28134,0 -11.36922,-5.08788 -11.36922,-11.36922c0,-6.28134 5.08788,-11.36922 11.36922,-11.36922c6.28134,0 11.36922,5.08788 11.36922,11.36922c0,6.28134 -5.08788,11.36922 -11.36922,11.36922z" opacity="undefined" stroke-width="6" stroke="#333333" fill="#3f3f3f"/>
  <ellipse ry="11.36922" rx="11.36922" id="svg_17" cy="112.40881" cx="20.04934" stroke-width="6" stroke="#333333" fill="#3f3f3f"/>
  <ellipse ry="11.36922" rx="11.36922" id="svg_18" cy="113.3868" cx="246.94481" stroke-width="6" stroke="#333333" fill="#3f3f3f"/>
  <path id="svg_19" d="m190.46544,123.77803c-6.28134,0 -11.36922,-5.08788 -11.36922,-11.36922c0,-6.28134 5.08788,-11.36922 11.36922,-11.36922c6.28134,0 11.36922,5.08788 11.36922,11.36922c0,6.28134 -5.08788,11.36922 -11.36922,11.36922z" opacity="undefined" stroke-width="6" stroke="#333333" fill="#3f3f3f"/>
  <ellipse ry="11.36922" rx="11.36922" id="svg_20" cy="39.05898" cx="20.78284" stroke-width="6" stroke="#333333" fill="#3f3f3f"/>
 </g>
 <defs>
  <radialGradient gradientTransform="rotate(17,0.51953125,0.5398437976837158) translate(0,0.12416407346725462) scale(1,0.77)" r="1.04219" cy="0.53984" cx="0.51953" spreadMethod="pad" id="svg_8">
   <stop offset="0" stop-opacity="0.98438" stop-color="#c4c4c4"/>
   <stop offset="1" stop-opacity="0.99609" stop-color="#6b6c7f"/>
  </radialGradient>
 </defs>
</svg>