<svg width="260" height="312" viewBox="0 0 260 312" fill="none" xmlns="http://www.w3.org/2000/svg">
<rect y="186" width="148" height="101" rx="10" fill="url(#paint0_linear_1018_20)"/>
<rect x="123" width="137" height="92" rx="10" fill="url(#paint1_linear_1018_20)"/>
<rect x="32" y="32" width="83" height="146" rx="10" fill="url(#paint2_linear_1018_20)"/>
<path d="M156 110C156 104.477 160.477 100 166 100H233C238.523 100 243 104.477 243 110V302C243 307.523 238.523 312 233 312H166C160.477 312 156 307.523 156 302V110Z" fill="url(#paint3_linear_1018_20)"/>
<ellipse cx="159" cy="187.5" rx="44" ry="46.5" fill="#824FFF"/>
<path d="M206.899 143.375C204.197 139.812 200.907 136.725 197.852 133.638C189.979 126.513 181.049 121.406 173.529 113.925C156.022 96.5875 152.144 67.9688 163.307 46C152.144 48.7313 142.392 54.9063 134.049 61.675C103.617 86.375 91.6315 129.956 105.967 167.363C106.437 168.55 106.907 169.738 106.907 171.281C106.907 173.894 105.144 176.269 102.794 177.219C100.092 178.406 97.2715 177.694 95.039 175.794C94.334 175.2 93.864 174.606 93.394 173.775C80.1165 156.794 78.0015 132.45 86.9315 112.975C67.309 129.125 56.6165 156.438 58.144 182.206C58.849 188.144 59.554 194.081 61.5515 200.019C63.1965 207.144 66.369 214.269 69.894 220.563C82.584 241.106 104.557 255.831 128.174 258.8C153.319 262.006 180.227 257.375 199.497 239.8C220.999 220.088 228.519 188.5 217.474 161.425L215.947 158.338C213.479 152.875 206.899 143.375 206.899 143.375ZM169.769 218.188C166.479 221.037 161.074 224.125 156.844 225.312C143.684 230.062 130.524 223.413 122.769 215.575C136.752 212.25 145.094 201.8 147.562 191.231C149.559 181.731 145.799 173.894 144.272 164.75C142.862 155.962 143.097 148.481 146.269 140.287C148.502 144.8 150.852 149.312 153.672 152.875C162.719 164.75 176.937 169.975 179.992 186.125C180.462 187.788 180.697 189.45 180.697 191.231C181.049 200.969 176.819 211.656 169.769 218.188Z" fill="white"/>
<defs>
<linearGradient id="paint0_linear_1018_20" x1="98.4042" y1="186" x2="47.1778" y2="286.313" gradientUnits="userSpaceOnUse">
<stop stop-color="#4457FF"/>
<stop offset="1" stop-color="#CC44FF"/>
</linearGradient>
<linearGradient id="paint1_linear_1018_20" x1="214.09" y1="-5.26739e-06" x2="167.871" y2="91.9767" gradientUnits="userSpaceOnUse">
<stop stop-color="#4457FF"/>
<stop offset="1" stop-color="#CC44FF"/>
</linearGradient>
<linearGradient id="paint2_linear_1018_20" x1="87.1862" y1="32" x2="-0.877947" y2="98.9029" gradientUnits="userSpaceOnUse">
<stop stop-color="#4457FF"/>
<stop offset="1" stop-color="#CC44FF"/>
</linearGradient>
<linearGradient id="paint3_linear_1018_20" x1="213.846" y1="100" x2="101.923" y2="161.38" gradientUnits="userSpaceOnUse">
<stop stop-color="#4457FF"/>
<stop offset="1" stop-color="#CC44FF"/>
</linearGradient>
</defs>
</svg>
