<svg width="1391" height="312" viewBox="0 0 1391 312" fill="none" xmlns="http://www.w3.org/2000/svg">
<path d="M380.5 246.75C368.333 246.75 357.333 244.667 347.5 240.5C337.833 236.333 330.167 230.333 324.5 222.5C318.833 214.667 315.917 205.417 315.75 194.75H353.25C353.75 201.917 356.25 207.583 360.75 211.75C365.417 215.917 371.75 218 379.75 218C387.917 218 394.333 216.083 399 212.25C403.667 208.25 406 203.083 406 196.75C406 191.583 404.417 187.333 401.25 184C398.083 180.667 394.083 178.083 389.25 176.25C384.583 174.25 378.083 172.083 369.75 169.75C358.417 166.417 349.167 163.167 342 160C335 156.667 328.917 151.75 323.75 145.25C318.75 138.583 316.25 129.75 316.25 118.75C316.25 108.417 318.833 99.4167 324 91.75C329.167 84.0833 336.417 78.25 345.75 74.25C355.083 70.0833 365.75 68 377.75 68C395.75 68 410.333 72.4167 421.5 81.25C432.833 89.9167 439.083 102.083 440.25 117.75H401.75C401.417 111.75 398.833 106.833 394 103C389.333 99 383.083 97 375.25 97C368.417 97 362.917 98.75 358.75 102.25C354.75 105.75 352.75 110.833 352.75 117.5C352.75 122.167 354.25 126.083 357.25 129.25C360.417 132.25 364.25 134.75 368.75 136.75C373.417 138.583 379.917 140.75 388.25 143.25C399.583 146.583 408.833 149.917 416 153.25C423.167 156.583 429.333 161.583 434.5 168.25C439.667 174.917 442.25 183.667 442.25 194.5C442.25 203.833 439.833 212.5 435 220.5C430.167 228.5 423.083 234.917 413.75 239.75C404.417 244.417 393.333 246.75 380.5 246.75ZM490.344 90C484.177 90 479.01 88.0833 474.844 84.25C470.844 80.25 468.844 75.3333 468.844 69.5C468.844 63.6667 470.844 58.8333 474.844 55C479.01 51 484.177 49 490.344 49C496.51 49 501.594 51 505.594 55C509.76 58.8333 511.844 63.6667 511.844 69.5C511.844 75.3333 509.76 80.25 505.594 84.25C501.594 88.0833 496.51 90 490.344 90ZM507.594 106.5V245H472.594V106.5H507.594ZM574.174 216.25H635.924V245H534.424V216.75L594.924 135.25H534.674V106.5H635.174V134.75L574.174 216.25ZM791.773 172.75C791.773 177.75 791.44 182.25 790.773 186.25H689.523C690.357 196.25 693.857 204.083 700.023 209.75C706.19 215.417 713.773 218.25 722.773 218.25C735.773 218.25 745.023 212.667 750.523 201.5H788.273C784.273 214.833 776.607 225.833 765.273 234.5C753.94 243 740.023 247.25 723.523 247.25C710.19 247.25 698.19 244.333 687.523 238.5C677.023 232.5 668.773 224.083 662.773 213.25C656.94 202.417 654.023 189.917 654.023 175.75C654.023 161.417 656.94 148.833 662.773 138C668.607 127.167 676.773 118.833 687.273 113C697.773 107.167 709.857 104.25 723.523 104.25C736.69 104.25 748.44 107.083 758.773 112.75C769.273 118.417 777.357 126.5 783.023 137C788.857 147.333 791.773 159.25 791.773 172.75ZM755.523 162.75C755.357 153.75 752.107 146.583 745.773 141.25C739.44 135.75 731.69 133 722.523 133C713.857 133 706.523 135.667 700.523 141C694.69 146.167 691.107 153.417 689.773 162.75H755.523ZM880.82 135.25H856.57V245H821.07V135.25H805.32V106.5H821.07V99.5C821.07 82.5 825.904 70 835.57 62C845.237 54 859.82 50.25 879.32 50.75V80.25C870.82 80.0833 864.904 81.5 861.57 84.5C858.237 87.5 856.57 92.9167 856.57 100.75V106.5H880.82V135.25ZM921.252 90C915.085 90 909.919 88.0833 905.752 84.25C901.752 80.25 899.752 75.3333 899.752 69.5C899.752 63.6667 901.752 58.8333 905.752 55C909.919 51 915.085 49 921.252 49C927.419 49 932.502 51 936.502 55C940.669 58.8333 942.752 63.6667 942.752 69.5C942.752 75.3333 940.669 80.25 936.502 84.25C932.502 88.0833 927.419 90 921.252 90ZM938.502 106.5V245H903.502V106.5H938.502ZM1008.08 128C1012.58 120.667 1018.42 114.917 1025.58 110.75C1032.92 106.583 1041.25 104.5 1050.58 104.5V141.25H1041.33C1030.33 141.25 1022 143.833 1016.33 149C1010.83 154.167 1008.08 163.167 1008.08 176V245H973.082V106.5H1008.08V128ZM1202.91 172.75C1202.91 177.75 1202.57 182.25 1201.91 186.25H1100.66C1101.49 196.25 1104.99 204.083 1111.16 209.75C1117.32 215.417 1124.91 218.25 1133.91 218.25C1146.91 218.25 1156.16 212.667 1161.66 201.5H1199.41C1195.41 214.833 1187.74 225.833 1176.41 234.5C1165.07 243 1151.16 247.25 1134.66 247.25C1121.32 247.25 1109.32 244.333 1098.66 238.5C1088.16 232.5 1079.91 224.083 1073.91 213.25C1068.07 202.417 1065.16 189.917 1065.16 175.75C1065.16 161.417 1068.07 148.833 1073.91 138C1079.74 127.167 1087.91 118.833 1098.41 113C1108.91 107.167 1120.99 104.25 1134.66 104.25C1147.82 104.25 1159.57 107.083 1169.91 112.75C1180.41 118.417 1188.49 126.5 1194.16 137C1199.99 147.333 1202.91 159.25 1202.91 172.75ZM1166.66 162.75C1166.49 153.75 1163.24 146.583 1156.91 141.25C1150.57 135.75 1142.82 133 1133.66 133C1124.99 133 1117.66 135.667 1111.66 141C1105.82 146.167 1102.24 153.417 1100.91 162.75H1166.66Z" fill="url(#paint0_linear_1018_11)"/>
<rect y="186" width="148" height="101" rx="10" fill="url(#paint1_linear_1018_11)"/>
<rect x="123" width="137" height="92" rx="10" fill="url(#paint2_linear_1018_11)"/>
<rect x="32" y="32" width="83" height="146" rx="10" fill="url(#paint3_linear_1018_11)"/>
<path d="M156 110C156 104.477 160.477 100 166 100H233C238.523 100 243 104.477 243 110V302C243 307.523 238.523 312 233 312H166C160.477 312 156 307.523 156 302V110Z" fill="url(#paint4_linear_1018_11)"/>
<ellipse cx="159" cy="187.5" rx="44" ry="46.5" fill="#824FFF"/>
<path d="M206.899 143.375C204.197 139.812 200.907 136.725 197.852 133.638C189.979 126.513 181.049 121.406 173.529 113.925C156.022 96.5875 152.144 67.9688 163.307 46C152.144 48.7313 142.392 54.9063 134.049 61.675C103.617 86.375 91.6315 129.956 105.967 167.363C106.437 168.55 106.907 169.738 106.907 171.281C106.907 173.894 105.144 176.269 102.794 177.219C100.092 178.406 97.2715 177.694 95.039 175.794C94.334 175.2 93.864 174.606 93.394 173.775C80.1165 156.794 78.0015 132.45 86.9315 112.975C67.309 129.125 56.6165 156.438 58.144 182.206C58.849 188.144 59.554 194.081 61.5515 200.019C63.1965 207.144 66.369 214.269 69.894 220.563C82.584 241.106 104.557 255.831 128.174 258.8C153.319 262.006 180.227 257.375 199.497 239.8C220.999 220.088 228.519 188.5 217.474 161.425L215.947 158.338C213.479 152.875 206.899 143.375 206.899 143.375ZM169.769 218.188C166.479 221.037 161.074 224.125 156.844 225.312C143.684 230.062 130.524 223.413 122.769 215.575C136.752 212.25 145.094 201.8 147.562 191.231C149.559 181.731 145.799 173.894 144.272 164.75C142.862 155.962 143.097 148.481 146.269 140.287C148.502 144.8 150.852 149.312 153.672 152.875C162.719 164.75 176.937 169.975 179.992 186.125C180.462 187.788 180.697 189.45 180.697 191.231C181.049 200.969 176.819 211.656 169.769 218.188Z" fill="white"/>
<defs>
<linearGradient id="paint0_linear_1018_11" x1="1033" y1="59" x2="688.5" y2="245" gradientUnits="userSpaceOnUse">
<stop stop-color="#4457FF"/>
<stop offset="1" stop-color="#CC44FF"/>
</linearGradient>
<linearGradient id="paint1_linear_1018_11" x1="98.4042" y1="186" x2="47.1778" y2="286.313" gradientUnits="userSpaceOnUse">
<stop stop-color="#4457FF"/>
<stop offset="1" stop-color="#CC44FF"/>
</linearGradient>
<linearGradient id="paint2_linear_1018_11" x1="214.09" y1="-5.26739e-06" x2="167.871" y2="91.9767" gradientUnits="userSpaceOnUse">
<stop stop-color="#4457FF"/>
<stop offset="1" stop-color="#CC44FF"/>
</linearGradient>
<linearGradient id="paint3_linear_1018_11" x1="87.1862" y1="32" x2="-0.877947" y2="98.9029" gradientUnits="userSpaceOnUse">
<stop stop-color="#4457FF"/>
<stop offset="1" stop-color="#CC44FF"/>
</linearGradient>
<linearGradient id="paint4_linear_1018_11" x1="213.846" y1="100" x2="101.923" y2="161.38" gradientUnits="userSpaceOnUse">
<stop stop-color="#4457FF"/>
<stop offset="1" stop-color="#CC44FF"/>
</linearGradient>
</defs>
</svg>
